<svg xmlns="http://www.w3.org/2000/svg" viewBox="0 0 500 500"><g id="freepik--background-simple--inject-88"><path d="M438.44,378.23c2.94-11,12.52-47.91,19-85.31C465.22,248.28,472,186.79,441,161s-71.78,4.95-93.12-5-22.31-59.52-79.54-74.4-89.24,36.7-114.46,64.48S100.51,155,63.65,184.8c-36.46,29.44-5.54,162.69,21.42,193.43Z" style="fill:#92E3A9"></path><path d="M438.44,378.23c2.94-11,12.52-47.91,19-85.31C465.22,248.28,472,186.79,441,161s-71.78,4.95-93.12-5-22.31-59.52-79.54-74.4-89.24,36.7-114.46,64.48S100.51,155,63.65,184.8c-36.46,29.44-5.54,162.69,21.42,193.43Z" style="fill:#fff;opacity:0.7000000000000001"></path></g><g id="freepik--Floor--inject-88"><rect x="54.71" y="378.74" width="401.92" height="4.22" style="fill:#263238"></rect></g><g id="freepik--Board--inject-88"><path d="M355.38,139H159.46a1.34,1.34,0,0,0-1.34,1.34v97.58a1.34,1.34,0,0,0,1.34,1.34H355.38a1.34,1.34,0,0,0,1.34-1.34V140.33A1.34,1.34,0,0,0,355.38,139ZM354,141.67v90.55H160.8V141.67Z" style="fill:#92E3A9"></path><path d="M195.59,160.75a6,6,0,0,0-6,5.42,5.49,5.49,0,0,0,0,.58,6,6,0,0,0,1.15,3.52l-.75,2.22,2.32-.74a6.05,6.05,0,0,0,9.37-5c0-.16,0-.31,0-.47A6,6,0,0,0,195.59,160.75Zm3.52,8.47a1.72,1.72,0,0,1-1.18.83c-.33,0-.33.27-2.12-.43a7.27,7.27,0,0,1-3-2.64,4,4,0,0,1-.63-1.21,2.49,2.49,0,0,1-.09-.6,2,2,0,0,1,.62-1.46.67.67,0,0,1,.47-.22l.33,0c.11,0,.26-.06.4.29s.5,1.21.55,1.3a.32.32,0,0,1,0,.3,1.34,1.34,0,0,1-.11.21l-.07.09c-.09.1-.18.22-.26.3s-.18.18-.08.36a5.34,5.34,0,0,0,1,1.21,4.72,4.72,0,0,0,1.42.87c.18.08.28.07.38-.05s.44-.51.56-.68.24-.15.4-.09,1,.48,1.2.57.29.13.34.2A1.48,1.48,0,0,1,199.11,169.22Z" style="fill:#92E3A9"></path><path d="M195.08,153.55a13.35,13.35,0,1,0,13.35,13.34A13.35,13.35,0,0,0,195.08,153.55Zm.51,20.33a7.17,7.17,0,0,1-3.48-.89l-4,1.27,1.3-3.83a7.07,7.07,0,0,1-1-3.68c0-.11,0-.21,0-.31a7.19,7.19,0,0,1,14.36.13v.18A7.15,7.15,0,0,1,195.59,173.88Z" style="fill:#92E3A9"></path><polygon points="245.68 164.11 250.03 161.64 245.68 159.16 245.68 164.11" style="fill:#92E3A9"></polygon><path d="M247.38,148.29h0a13.35,13.35,0,1,0,0,26.69h0a13.35,13.35,0,1,0,0-26.69Zm8,17.38a2.09,2.09,0,0,1-1.47,1.48,60.53,60.53,0,0,1-13,0,2.09,2.09,0,0,1-1.47-1.48,23.43,23.43,0,0,1,0-8.07,2.09,2.09,0,0,1,1.47-1.48,60.53,60.53,0,0,1,13,0,2.09,2.09,0,0,1,1.47,1.48,23.43,23.43,0,0,1,0,8.07Z" style="fill:#92E3A9"></path><path d="M236.06,183.74a13.35,13.35,0,1,0,13.34,13.35A13.35,13.35,0,0,0,236.06,183.74Zm-3.66,19h-2.77V193.8h2.77ZM231,192.63a1.65,1.65,0,1,1,1.63-1.65A1.64,1.64,0,0,1,231,192.63Zm11.75,10.09H240V198c0-1.29-.49-2-1.51-2s-1.68.74-1.68,2v4.68h-2.65V193.8h2.65V195a3.12,3.12,0,0,1,2.69-1.47c1.89,0,3.25,1.15,3.25,3.54Z" style="fill:#92E3A9"></path><rect x="206.31" y="164.17" width="22.63" height="1" transform="translate(-19.01 28.73) rotate(-7.24)" style="fill:#92E3A9"></rect><polygon points="225.25 167.19 224.86 166.27 230.3 163.94 221.41 160.88 221.74 159.93 233.08 163.83 225.25 167.19" style="fill:#92E3A9"></polygon><rect x="208.43" y="176.29" width="1" height="20.71" transform="matrix(0.52, -0.85, 0.85, 0.52, -59.04, 268.37)" style="fill:#92E3A9"></rect><polygon points="219.45 193.86 212.67 193.15 212.78 192.16 218.01 192.71 216.04 186.8 216.99 186.49 219.45 193.86" style="fill:#92E3A9"></polygon><path d="M268.5,197.78V158.24l53,1.55,1.58,37Zm2-37.48v35.45l50.46-1-1.42-33Z" style="fill:#92E3A9"></path><rect x="294.75" y="164.26" width="2" height="15.51" transform="translate(114.29 462.07) rotate(-88.15)" style="fill:#92E3A9"></rect><rect x="280" y="178.52" width="35.5" height="2" transform="translate(-2.43 4.1) rotate(-0.78)" style="fill:#92E3A9"></rect><rect x="295.25" y="179" width="2" height="13.54" transform="translate(89.11 467.48) rotate(-85.76)" style="fill:#92E3A9"></rect><g style="opacity:0.3"><path d="M355.38,139H159.46a1.34,1.34,0,0,0-1.34,1.34v97.58a1.34,1.34,0,0,0,1.34,1.34H355.38a1.34,1.34,0,0,0,1.34-1.34V140.33A1.34,1.34,0,0,0,355.38,139ZM354,141.67v90.55H160.8V141.67Z"></path><path d="M195.59,160.75a6,6,0,0,0-6,5.42,5.49,5.49,0,0,0,0,.58,6,6,0,0,0,1.15,3.52l-.75,2.22,2.32-.74a6.05,6.05,0,0,0,9.37-5c0-.16,0-.31,0-.47A6,6,0,0,0,195.59,160.75Zm3.52,8.47a1.72,1.72,0,0,1-1.18.83c-.33,0-.33.27-2.12-.43a7.27,7.27,0,0,1-3-2.64,4,4,0,0,1-.63-1.21,2.49,2.49,0,0,1-.09-.6,2,2,0,0,1,.62-1.46.67.67,0,0,1,.47-.22l.33,0c.11,0,.26-.06.4.29s.5,1.21.55,1.3a.32.32,0,0,1,0,.3,1.34,1.34,0,0,1-.11.21l-.07.09c-.09.1-.18.22-.26.3s-.18.18-.08.36a5.34,5.34,0,0,0,1,1.21,4.72,4.72,0,0,0,1.42.87c.18.08.28.07.38-.05s.44-.51.56-.68.24-.15.4-.09,1,.48,1.2.57.29.13.34.2A1.48,1.48,0,0,1,199.11,169.22Z"></path><path d="M195.08,153.55a13.35,13.35,0,1,0,13.35,13.34A13.35,13.35,0,0,0,195.08,153.55Zm.51,20.33a7.17,7.17,0,0,1-3.48-.89l-4,1.27,1.3-3.83a7.07,7.07,0,0,1-1-3.68c0-.11,0-.21,0-.31a7.19,7.19,0,0,1,14.36.13v.18A7.15,7.15,0,0,1,195.59,173.88Z"></path><polygon points="245.68 164.11 250.03 161.64 245.68 159.16 245.68 164.11"></polygon><path d="M247.38,148.29h0a13.35,13.35,0,1,0,0,26.69h0a13.35,13.35,0,1,0,0-26.69Zm8,17.38a2.09,2.09,0,0,1-1.47,1.48,60.53,60.53,0,0,1-13,0,2.09,2.09,0,0,1-1.47-1.48,23.43,23.43,0,0,1,0-8.07,2.09,2.09,0,0,1,1.47-1.48,60.53,60.53,0,0,1,13,0,2.09,2.09,0,0,1,1.47,1.48,23.43,23.43,0,0,1,0,8.07Z"></path><path d="M236.06,183.74a13.35,13.35,0,1,0,13.34,13.35A13.35,13.35,0,0,0,236.06,183.74Zm-3.66,19h-2.77V193.8h2.77ZM231,192.63a1.65,1.65,0,1,1,1.63-1.65A1.64,1.64,0,0,1,231,192.63Zm11.75,10.09H240V198c0-1.29-.49-2-1.51-2s-1.68.74-1.68,2v4.68h-2.65V193.8h2.65V195a3.12,3.12,0,0,1,2.69-1.47c1.89,0,3.25,1.15,3.25,3.54Z"></path><rect x="206.31" y="164.17" width="22.63" height="1" transform="translate(-19.01 28.73) rotate(-7.24)"></rect><polygon points="225.25 167.19 224.86 166.27 230.3 163.94 221.41 160.88 221.74 159.93 233.08 163.83 225.25 167.19"></polygon><rect x="208.43" y="176.29" width="1" height="20.71" transform="matrix(0.52, -0.85, 0.85, 0.52, -59.04, 268.37)"></rect><polygon points="219.45 193.86 212.67 193.15 212.78 192.16 218.01 192.71 216.04 186.8 216.99 186.49 219.45 193.86"></polygon><path d="M268.5,197.78V158.24l53,1.55,1.58,37Zm2-37.48v35.45l50.46-1-1.42-33Z"></path><rect x="294.75" y="164.26" width="2" height="15.51" transform="translate(114.29 462.07) rotate(-88.15)"></rect><rect x="280" y="178.52" width="35.5" height="2" transform="translate(-2.43 4.1) rotate(-0.78)"></rect><rect x="295.25" y="179" width="2" height="13.54" transform="translate(89.11 467.48) rotate(-85.76)"></rect></g></g><g id="freepik--Plants--inject-88"><path d="M55.55,289c1.4.62,4.85.54,4.86.54s-.74-2.26-.81-2.39c-.76-1.59-3.15-4.2-5.1-3.94a2.33,2.33,0,0,0-1.86,2.92A4.81,4.81,0,0,0,55.55,289Z" style="fill:#263238"></path><path d="M100.73,277.29c-2-.21-4.28,2.47-5,4.07-.06.14-.78,2.42-.74,2.42h0c-.37.42-.76.87-1.18,1.38-.77.94-1.62,2-2.47,3.23a39.35,39.35,0,0,0-2.56,4.08,30,30,0,0,0-2.19,4.93l0,.06c0-.58,0-2.19,0-2.31-.23-1.74-1.69-5-3.62-5.33A2.33,2.33,0,0,0,80.29,292a4.87,4.87,0,0,0,1.87,3.64,16.14,16.14,0,0,0,4.4,2A42.91,42.91,0,0,0,85.27,303c-.19,1.05-.34,2.12-.49,3.19,0-.5,0-.95,0-1-.23-1.74-1.69-5-3.62-5.33A2.33,2.33,0,0,0,78.46,302a4.86,4.86,0,0,0,1.86,3.64,15.42,15.42,0,0,0,4.28,2c0,.41-.11.82-.16,1.23-.23,2-.46,3.94-.74,5.87-.1.68-.22,1.34-.34,2,0-.45,0-.82,0-.87-.22-1.75-1.68-5-3.61-5.33A2.32,2.32,0,0,0,77,312.75a4.84,4.84,0,0,0,1.86,3.63,14.91,14.91,0,0,0,4.15,1.94c-.14.67-.28,1.35-.45,2-.13.44-.22.88-.37,1.31l-.42,1.29c-.29.82-.59,1.65-.9,2.44-.21.55-.42,1.06-.63,1.58.11-.67.29-2,.29-2.11a9,9,0,0,0-1.21-4.39,4.36,4.36,0,0,0,0-.51,2.33,2.33,0,0,0-2.85-2c-1.9.5-3.1,3.83-3.19,5.59,0,.1.06,1.23.12,1.94-.1-.41-.19-.82-.29-1.24-.2-.84-.42-1.67-.66-2.57l-.39-1.3c-.13-.43-.31-.88-.46-1.33-.38-1-.81-2.05-1.27-3.07a15.19,15.19,0,0,0,4.39-1.64,4.87,4.87,0,0,0,2.13-3.49,2.33,2.33,0,0,0-2.51-2.38c-2,.21-3.65,3.33-4,5,0,.1-.14,1.36-.19,2.06-.27-.61-.55-1.22-.85-1.83-.88-1.76-1.81-3.51-2.74-5.27-.29-.53-.56-1.07-.84-1.61a16.12,16.12,0,0,0,4.54-1.68,4.86,4.86,0,0,0,2.13-3.49,2.33,2.33,0,0,0-2.51-2.38c-2,.21-3.65,3.32-4,5,0,.13-.19,1.95-.21,2.41-.61-1.18-1.21-2.37-1.76-3.56a39.87,39.87,0,0,1-1.92-5,16.14,16.14,0,0,0,4.57-1.68,4.86,4.86,0,0,0,2.13-3.49,2.32,2.32,0,0,0-2.51-2.38c-2,.21-3.65,3.32-4,5,0,.14-.2,2.09-.21,2.45l-.1-.3a29.86,29.86,0,0,1-1-5.23c-.11-1-.16-1.91-.18-2.83a15.47,15.47,0,0,0,4.61-1.16,4.85,4.85,0,0,0,2.5-3.23,2.34,2.34,0,0,0-2.23-2.65c-2,0-4,2.91-4.54,4.58,0,.09-.22,1-.36,1.74,0-.41,0-.84,0-1.23,0-1.49.09-2.85.19-4.05,0-.69.12-1.31.19-1.88a15.67,15.67,0,0,0,3.54-3.14,4.88,4.88,0,0,0,.73-4,2.32,2.32,0,0,0-3.2-1.31c-1.75.9-2.21,4.41-1.92,6.14,0,.15.69,2.45.72,2.43l0,0c-.08.56-.15,1.15-.22,1.8-.12,1.21-.25,2.57-.28,4.06a41.88,41.88,0,0,0,.11,4.82,30.67,30.67,0,0,0,.9,5.32.14.14,0,0,0,0,.06c-.31-.49-1.22-1.81-1.3-1.91-1.15-1.33-4.15-3.21-6-2.45a2.34,2.34,0,0,0-1,3.31,4.88,4.88,0,0,0,3.57,2c1.46.22,4.54-.68,4.78-.75a42.89,42.89,0,0,0,1.87,5.17c.42,1,.88,1.95,1.35,2.92-.28-.41-.54-.77-.58-.82-1.15-1.33-4.14-3.22-5.95-2.45a2.31,2.31,0,0,0-1,3.3,4.86,4.86,0,0,0,3.56,2,15.63,15.63,0,0,0,4.65-.71c.19.37.37.74.55,1.11.9,1.77,1.79,3.54,2.62,5.3.29.62.56,1.24.82,1.86-.25-.36-.46-.67-.5-.71-1.15-1.33-4.14-3.22-5.95-2.45a2.32,2.32,0,0,0-1,3.31,4.85,4.85,0,0,0,3.56,2,14.94,14.94,0,0,0,4.53-.68c.25.65.51,1.29.72,1.93.14.43.31.85.42,1.29s.25.88.37,1.31c.2.84.41,1.71.59,2.53.12.57.23,1.12.35,1.67-.29-.62-.87-1.82-.93-1.92-.93-1.48-3.61-3.81-5.51-3.32A2.32,2.32,0,0,0,64.48,324a4.83,4.83,0,0,0,3.22,2.52,16,16,0,0,0,4.81,0c.19.91.36,1.8.5,2.64.52,2.92.84,5.37,1,7.08,0,.31.07.58.1.84H68.22l2.16,42.13H80.46l2.16-42.13H77.11l.12-.26c.76-1.57,1.8-3.83,2.94-6.6.36-.88.72-1.82,1.09-2.79a15.91,15.91,0,0,0,4.81.37,4.87,4.87,0,0,0,3.39-2.27,2.33,2.33,0,0,0-1.28-3.22c-1.86-.62-4.7,1.49-5.75,2.91-.06.08-.62,1.06-1,1.68.15-.4.3-.78.44-1.19.3-.81.57-1.63.87-2.51l.39-1.3c.14-.43.23-.9.35-1.36.25-1.06.46-2.15.64-3.26a15.26,15.26,0,0,0,4.56,1.05,4.84,4.84,0,0,0,3.7-1.73,2.32,2.32,0,0,0-.78-3.37c-1.75-.9-4.88.76-6.12,2-.08.08-.87,1.07-1.3,1.62.11-.66.22-1.33.3-2,.24-1.95.43-3.93.62-5.9.06-.61.12-1.21.19-1.81.25.09,3.24,1.21,4.71,1.1a4.84,4.84,0,0,0,3.7-1.73,2.32,2.32,0,0,0-.78-3.37c-1.74-.9-4.87.76-6.12,2-.09.1-1.23,1.52-1.5,1.9.14-1.33.29-2.65.49-4A40.43,40.43,0,0,1,87,297.9,16.29,16.29,0,0,0,91.7,299a4.84,4.84,0,0,0,3.7-1.74,2.32,2.32,0,0,0-.78-3.37c-1.75-.9-4.88.76-6.12,2-.1.1-1.32,1.63-1.53,1.92,0-.1,0-.2.08-.3a30.27,30.27,0,0,1,2.06-4.91c.44-.87.92-1.68,1.4-2.46A15.76,15.76,0,0,0,95,291.74a4.87,4.87,0,0,0,3.87-1.32,2.33,2.33,0,0,0-.4-3.44c-1.64-1.09-4.94.22-6.31,1.31l-1.26,1.26.66-1c.83-1.24,1.66-2.32,2.4-3.27.42-.54.82-1,1.2-1.46a15.78,15.78,0,0,0,4.68-.67,4.87,4.87,0,0,0,2.83-3A2.33,2.33,0,0,0,100.73,277.29ZM79.09,329.78c-1.18,2.72-2.26,4.94-3,6.48l-.43.84h-.13c0-.3-.09-.63-.14-1-.23-1.73-.61-4.2-1.19-7.13-.18-.93-.4-1.92-.63-2.93a25.32,25.32,0,0,0,2.69-1.26,16.81,16.81,0,0,0,3.92,2.52C79.79,328.16,79.44,329,79.09,329.78Z" style="fill:#263238"></path><path d="M90.43,289.79s.63-2.29.65-2.44c.24-1.74-.31-5.24-2.08-6.09a2.33,2.33,0,0,0-3.17,1.4,4.88,4.88,0,0,0,.84,4C87.51,288,90.43,289.79,90.43,289.79Z" style="fill:#263238"></path></g><g id="freepik--character-2--inject-88"><path d="M280.62,325.77l7.71,54.84a.92.92,0,0,0,1.13.77h0a.92.92,0,0,0,.71-1l-5.44-55.53Z" style="fill:#263238;stroke:#263238;stroke-linecap:round;stroke-linejoin:round"></path><path d="M236.57,325.77l-7.71,54.84a.92.92,0,0,1-1.13.77h0a.92.92,0,0,1-.71-1l5.44-55.53Z" style="fill:#263238;stroke:#263238;stroke-linecap:round;stroke-linejoin:round"></path><path d="M233.67,331.37l-2.64-63a6.6,6.6,0,0,1,6.59-6.88h44.12a6.61,6.61,0,0,1,6.58,7.11l-4.89,62.73Z" style="fill:#263238;stroke:#263238;stroke-linecap:round;stroke-linejoin:round"></path><rect x="229.07" y="317.57" width="58.55" height="13.8" style="fill:#92E3A9;stroke:#263238;stroke-linecap:round;stroke-linejoin:round"></rect><path d="M233.67,331.37h-4.43l-3.1-25.93a3.76,3.76,0,0,1,3.77-3.76h0a3.76,3.76,0,0,1,3.76,3.76Z" style="fill:#263238;stroke:#263238;stroke-linecap:round;stroke-linejoin:round"></path><path d="M283.43,331.37h4.43L291,305.44a3.76,3.76,0,0,0-3.77-3.76h0a3.76,3.76,0,0,0-3.77,3.76Z" style="fill:#263238;stroke:#263238;stroke-linecap:round;stroke-linejoin:round"></path><polygon points="239.52 282.6 241.61 303.93 274.65 303.93 276.74 282.6 239.52 282.6" style="fill:#fff;stroke:#263238;stroke-linecap:round;stroke-linejoin:round"></polygon><path d="M253,247.67l-17.63,9.89-9.55,29.15h68.85s-11-28.33-13.18-29.81-19.1-9.39-19.1-9.39Z" style="fill:#fff;stroke:#263238;stroke-linecap:round;stroke-linejoin:round"></path><path d="M265.8,237.79s1.82-1.32,2.15,0,0,4.12-1.16,4.61a1.76,1.76,0,0,1-2-.49l.82-3.46Z" style="fill:#fff;stroke:#263238;stroke-linecap:round;stroke-linejoin:round"></path><path d="M249.66,237.79s-1.81-1.32-2.14,0,0,4.12,1.15,4.61a1.77,1.77,0,0,0,2-.49l-.82-3.46Z" style="fill:#fff;stroke:#263238;stroke-linecap:round;stroke-linejoin:round"></path><path d="M252.3,245.2a5.8,5.8,0,0,0-1.81,2.31c-.33,1.15-1.49,10.54-1.49,10.54s6.26-4.12,8.07-4.45,10.71,5.11,10.71,5.11-2.14-10.71-3.79-13S255.1,242.56,252.3,245.2Z" style="fill:#fff;stroke:#263238;stroke-linecap:round;stroke-linejoin:round"></path><path d="M253.29,249s4.44,15,4.77,13.34,4.29-12.85,4.29-12.85S254.93,250.14,253.29,249Z" style="fill:#fff;stroke:#263238;stroke-linecap:round;stroke-linejoin:round"></path><path d="M250.32,239.6a64.2,64.2,0,0,0,1.81,7.58c.83,2.14,3.79,6.59,6.1,6.09s6.09-5.27,6.59-7.08a87.3,87.3,0,0,0,1.15-11c0-1.64-1.65-4.12-6.75-2.63S250.49,236.31,250.32,239.6Z" style="fill:#fff;stroke:#263238;stroke-linecap:round;stroke-linejoin:round"></path><path d="M262.84,234.16a59.54,59.54,0,0,1-6.59,5.11c-4.12,2.8-7.74,1.65-7.58.82a8.67,8.67,0,0,1,.83-2s-1.49.49-1.81-2.31-1-9.06,2.14-11.53,10.21-3.46,13.34-2.47,4.45,5.6,4.45,7.74A59.89,59.89,0,0,1,267,236s.66,1-1.16,1.81-3.13,0-2.8-1.48A2.75,2.75,0,0,0,262.84,234.16Z" style="fill:#263238;stroke:#263238;stroke-linecap:round;stroke-linejoin:round"></path><path d="M228.74,278.8s2-.82,5.44.5,10.38,3.29,11.36,3.29,6.59.5,6.59.5l.17,3.62s-25,.5-26.52,0S224.79,281.44,228.74,278.8Z" style="fill:#fff;stroke:#263238;stroke-linecap:round;stroke-linejoin:round"></path><path d="M246.33,284.68s4.39-3.79,5.73-4.64,5.13,5.13,5.25,5.62-1,.73-1,.73l-3.54-.73c-.61-.13-1.22.48-2.81.48h-4.4" style="fill:#fff;stroke:#263238;stroke-linecap:round;stroke-linejoin:round"></path><path d="M292.38,278.8s-2-.82-5.44.5-10.37,3.29-11.36,3.29-6.59.5-6.59.5l-.17,3.62s25,.5,26.53,0S296.33,281.44,292.38,278.8Z" style="fill:#fff;stroke:#263238;stroke-linecap:round;stroke-linejoin:round"></path><path d="M273.31,284.68s-4.39-3.79-5.73-4.64-5.13,5.13-5.25,5.62,1,.73,1,.73l3.54-.73c.61-.13,1.23.48,2.81.48h4.4" style="fill:#fff;stroke:#263238;stroke-linecap:round;stroke-linejoin:round"></path><rect x="241.61" y="303.93" width="31.78" height="13.8" style="fill:#fff;stroke:#263238;stroke-linecap:round;stroke-linejoin:round"></rect><path d="M244.54,303.1s9.2,2.51,10.87,9.2" style="fill:none;stroke:#263238;stroke-linecap:round;stroke-linejoin:round"></path><path d="M271.3,303.93s-7.52-.42-10,7.95" style="fill:none;stroke:#263238;stroke-linecap:round;stroke-linejoin:round"></path><path d="M248.09,311.86a10,10,0,0,0-8.08-10.6,7.75,7.75,0,0,0-4.67.58c-6.27,2.93-.15,71.36-.15,71.36h5S246.77,332.73,248.09,311.86Z" style="fill:#fff;stroke:#263238;stroke-linecap:round;stroke-linejoin:round"></path><polygon points="234.64 369.12 233.16 375.47 228.17 378.65 240.87 378.65 241.08 369.12 234.64 369.12" style="fill:#fff;stroke:#263238;stroke-linecap:round;stroke-linejoin:round"></polygon><path d="M233.16,375.47s3.17-2,5.44,0" style="fill:#fff;stroke:#263238;stroke-linecap:round;stroke-linejoin:round"></path><path d="M269,311.86a10,10,0,0,1,8.08-10.6,7.76,7.76,0,0,1,4.67.58c6.27,2.93.15,71.36.15,71.36h-5S270.33,332.73,269,311.86Z" style="fill:#fff;stroke:#263238;stroke-linecap:round;stroke-linejoin:round"></path><polygon points="282.47 369.12 283.95 375.47 288.94 378.65 276.24 378.65 276.02 369.12 282.47 369.12" style="fill:#fff;stroke:#263238;stroke-linecap:round;stroke-linejoin:round"></polygon><path d="M284,375.47s-3.18-2-5.45,0" style="fill:#fff;stroke:#263238;stroke-linecap:round;stroke-linejoin:round"></path></g><g id="freepik--device-3--inject-88"><path d="M354.07,286.26H318.72a.69.69,0,0,1-.63-.41l-9.78-22.32a.68.68,0,0,1,.63-1h35.34a.68.68,0,0,1,.63.41l9.79,22.31A.69.69,0,0,1,354.07,286.26Z" style="fill:#fff;stroke:#263238;stroke-linecap:round;stroke-linejoin:round"></path><path d="M350.76,284.52H320.6a.61.61,0,0,1-.54-.35l-8.35-19a.58.58,0,0,1,.54-.82h30.16a.59.59,0,0,1,.54.35l8.35,19A.59.59,0,0,1,350.76,284.52Z" style="fill:#92E3A9;stroke:#263238;stroke-linecap:round;stroke-linejoin:round"></path><rect x="318.23" y="284.78" width="53.11" height="1.74" transform="translate(689.57 571.29) rotate(180)" style="fill:#fff;stroke:#263238;stroke-linecap:round;stroke-linejoin:round"></rect><rect x="318.23" y="284.78" width="25.74" height="1.74" transform="translate(662.21 571.29) rotate(180)" style="fill:#fff;stroke:#263238;stroke-linecap:round;stroke-linejoin:round"></rect><path d="M337.4,251.39h0A15.45,15.45,0,0,1,322,236h0A15.45,15.45,0,0,1,337.4,220.5h0A15.45,15.45,0,0,1,352.84,236h0A15.44,15.44,0,0,1,337.4,251.39Z" style="fill:#263238;stroke:#263238;stroke-linecap:round;stroke-linejoin:round"></path><path d="M337.4,229c2.26,0,2.53,0,3.42.05a4.63,4.63,0,0,1,1.58.3,2.58,2.58,0,0,1,1,.63,2.51,2.51,0,0,1,.63,1,4.61,4.61,0,0,1,.3,1.57c0,.9,0,1.16,0,3.43s0,2.52,0,3.42a4.61,4.61,0,0,1-.3,1.57,2.51,2.51,0,0,1-.63,1,2.74,2.74,0,0,1-1,.64,5,5,0,0,1-1.58.29c-.89,0-1.16,0-3.42,0s-2.53,0-3.42,0a5,5,0,0,1-1.57-.29,2.57,2.57,0,0,1-1-.64,2.65,2.65,0,0,1-.64-1,5,5,0,0,1-.29-1.57c0-.9-.05-1.16-.05-3.42s0-2.53.05-3.43a5,5,0,0,1,.29-1.57,2.65,2.65,0,0,1,.64-1,2.44,2.44,0,0,1,1-.63,4.61,4.61,0,0,1,1.57-.3c.89,0,1.16-.05,3.42-.05m0-1.52c-2.3,0-2.58,0-3.49.05a6.16,6.16,0,0,0-2.05.39,4.37,4.37,0,0,0-2.48,2.48,6.16,6.16,0,0,0-.39,2c0,.91-.05,1.2-.05,3.5s0,2.58.05,3.49a6.16,6.16,0,0,0,.39,2.05,4.37,4.37,0,0,0,2.48,2.48,6.16,6.16,0,0,0,2.05.39c.91,0,1.19,0,3.49,0s2.59,0,3.49,0A6.17,6.17,0,0,0,343,244a4.37,4.37,0,0,0,2.48-2.48,6.42,6.42,0,0,0,.39-2.05c0-.91.05-1.2.05-3.49s0-2.59-.05-3.5a6.42,6.42,0,0,0-.39-2,4.37,4.37,0,0,0-2.48-2.48,6.17,6.17,0,0,0-2.06-.39c-.9,0-1.19-.05-3.49-.05" style="fill:#92E3A9"></path><path d="M337.4,231.6a4.35,4.35,0,1,0,4.35,4.35,4.34,4.34,0,0,0-4.35-4.35m0,7.17a2.83,2.83,0,1,1,2.83-2.82,2.82,2.82,0,0,1-2.83,2.82" style="fill:#92E3A9"></path><path d="M342.94,231.43a1,1,0,1,1-1-1,1,1,0,0,1,1,1" style="fill:#92E3A9"></path><polyline points="333.76 251.07 336.6 270.16 339.85 250.26" style="fill:#263238;stroke:#263238;stroke-linecap:round;stroke-linejoin:round"></polyline></g><g id="freepik--device-2--inject-88"><path d="M240.46,262.6h36a2.5,2.5,0,0,1,2.5,2.5v21.85a0,0,0,0,1,0,0H238a0,0,0,0,1,0,0V265.1A2.5,2.5,0,0,1,240.46,262.6Z" style="fill:#fff;stroke:#263238;stroke-linecap:round;stroke-linejoin:round"></path><path d="M287.57,234.39h0A15.45,15.45,0,0,1,272.12,219h0a15.45,15.45,0,0,1,15.45-15.44h0A15.44,15.44,0,0,1,303,219h0A15.45,15.45,0,0,1,287.57,234.39Z" style="fill:#263238;stroke:#263238;stroke-linecap:round;stroke-linejoin:round"></path><path d="M285.12,228.28h3.76v-9.41h2.62l.28-3.15h-2.9v-1.8c0-.74.15-1,.87-1h2v-3.27h-2.6c-2.8,0-4.06,1.23-4.06,3.59v2.52h-2v3.19h2Z" style="fill:#92E3A9"></path><polyline points="283.4 233.61 276.09 256.75 288.68 232.79" style="fill:#263238;stroke:#263238;stroke-linecap:round;stroke-linejoin:round"></polyline></g><g id="freepik--device-1--inject-88"><path d="M179.56,286.26h35.35a.69.69,0,0,0,.63-.41l9.79-22.32a.69.69,0,0,0-.63-1H189.35a.68.68,0,0,0-.63.41l-9.79,22.31A.69.69,0,0,0,179.56,286.26Z" style="fill:#fff;stroke:#263238;stroke-linecap:round;stroke-linejoin:round"></path><path d="M182.87,284.52H213a.58.58,0,0,0,.54-.35l8.35-19a.58.58,0,0,0-.53-.82H191.22a.56.56,0,0,0-.53.35l-8.35,19A.58.58,0,0,0,182.87,284.52Z" style="fill:#92E3A9;stroke:#263238;stroke-linecap:round;stroke-linejoin:round"></path><rect x="162.3" y="284.78" width="53.11" height="1.74" style="fill:#fff;stroke:#263238;stroke-linecap:round;stroke-linejoin:round"></rect><rect x="189.66" y="284.78" width="25.74" height="1.74" style="fill:#fff;stroke:#263238;stroke-linecap:round;stroke-linejoin:round"></rect><path d="M194.49,251.39h0A15.44,15.44,0,0,1,179.05,236h0a15.45,15.45,0,0,1,15.44-15.45h0A15.45,15.45,0,0,1,209.93,236h0A15.44,15.44,0,0,1,194.49,251.39Z" style="fill:#263238;stroke:#263238;stroke-linecap:round;stroke-linejoin:round"></path><path d="M186.27,241.11A9.6,9.6,0,0,0,201,232.59a7,7,0,0,0,1.68-1.75,6.72,6.72,0,0,1-1.94.53,3.34,3.34,0,0,0,1.48-1.86,6.82,6.82,0,0,1-2.14.81,3.38,3.38,0,0,0-5.75,3.08,9.59,9.59,0,0,1-7-3.52,3.37,3.37,0,0,0,1.05,4.5,3.27,3.27,0,0,1-1.53-.42,3.36,3.36,0,0,0,2.7,3.35,3.36,3.36,0,0,1-1.52.06,3.39,3.39,0,0,0,3.15,2.35A6.74,6.74,0,0,1,186.27,241.11Z" style="fill:#92E3A9"></path><polygon points="194.49 251.39 198.12 268.94 198.93 249.44 194.49 251.39" style="fill:#263238;stroke:#263238;stroke-linecap:round;stroke-linejoin:round"></polygon></g><g id="freepik--Table--inject-88"><path d="M333.69,293.78,341,380.3a.93.93,0,0,0,1.84-.2l-5-86.32Z" style="fill:#263238;stroke:#263238;stroke-linecap:round;stroke-linejoin:round"></path><path d="M382.54,293.78l7.29,86.81a.94.94,0,0,0,1.14.79.92.92,0,0,0,.7-1l-5-86.6Z" style="fill:#263238;stroke:#263238;stroke-linecap:round;stroke-linejoin:round"></path><path d="M181,293.78l-3.83,85.77a1,1,0,0,0,.71,1h0a.92.92,0,0,0,1.13-.78l6.14-86Z" style="fill:#263238;stroke:#263238;stroke-linecap:round;stroke-linejoin:round"></path><path d="M136,293.78l-3.83,85.48a1,1,0,0,0,.72,1,.91.91,0,0,0,1.12-.78l6.13-85.71Z" style="fill:#263238;stroke:#263238;stroke-linecap:round;stroke-linejoin:round"></path><rect x="133.25" y="288.99" width="258.78" height="7.43" style="fill:#92E3A9;stroke:#263238;stroke-linecap:round;stroke-linejoin:round"></rect><rect x="133.25" y="288.99" width="258.78" height="2.55" style="fill:#263238;stroke:#263238;stroke-linecap:round;stroke-linejoin:round"></rect><rect x="327.28" y="288.99" width="64.75" height="7.43" style="fill:#263238;stroke:#263238;stroke-linecap:round;stroke-linejoin:round"></rect><rect x="130.95" y="286.51" width="263.4" height="2.83" style="fill:#92E3A9;stroke:#263238;stroke-linecap:round;stroke-linejoin:round"></rect><rect x="329.98" y="286.51" width="64.36" height="2.83" style="fill:#263238;stroke:#263238;stroke-linecap:round;stroke-linejoin:round"></rect><rect x="298.87" y="272.71" width="9.37" height="13.84" style="fill:#fff;stroke:#263238;stroke-linecap:round;stroke-linejoin:round"></rect><path d="M307.82,284.66h-1a.77.77,0,0,1,0-1.54h1a1.46,1.46,0,0,0,1.46-1.46V278.3a1.46,1.46,0,0,0-1.46-1.46h-1.26a.78.78,0,0,1,0-1.55h1.26a3,3,0,0,1,3,3v3.36A3,3,0,0,1,307.82,284.66Z" style="fill:#fff;stroke:#263238;stroke-linecap:round;stroke-linejoin:round"></path></g><g id="freepik--character-3--inject-88"><path d="M370.22,239.51s4,9.1,6.54,13.07,5.6,4.44,7,3l4-4,4.9,4.43,4.21-6.3a80.61,80.61,0,0,1-5.37-7.94c-1.64-3-5.84-10.27-13.31-9.1S369.76,237.41,370.22,239.51Z" style="fill:#fff;stroke:#263238;stroke-linecap:round;stroke-linejoin:round"></path><path d="M377.23,235.31s-6.77,7.93-11.68,6.53-3.26-11,5.84-16.34,18.21-4,21.48,1.87,2.1,14,1.4,16.57-2.34,4.67-5.37,3a40,40,0,0,1-7-5.6s-.24,4.66-1.41,2.8a12.46,12.46,0,0,1-1.4-4.67S374.89,239.51,377.23,235.31Z" style="fill:#263238;stroke:#263238;stroke-linecap:round;stroke-linejoin:round"></path><path d="M382.13,244.64s-.93-5.37,1.4-4.67,2.1,3.74.93,5.84" style="fill:#fff;stroke:#263238;stroke-linecap:round;stroke-linejoin:round"></path><polygon points="365.33 321.26 376 371.26 381.67 371.6 377.33 320.6 365.33 321.26" style="fill:#fff;stroke:#263238;stroke-linecap:round;stroke-linejoin:round"></polygon><polygon points="376 371.26 364.33 378.93 382.67 378.93 381.67 371.6 376 371.26" style="fill:#fff;stroke:#263238;stroke-linecap:round;stroke-linejoin:round"></polygon><path d="M394.27,298.8l-2.1,4.9s-16.34,3-25,4.91-18.44,5.37-18.44,7.47,7.3,55.45,7.3,55.45l4.43.23.87-48.45s26.85-1.86,34.32-2.1,13.54.94,18.91-5.6,1.86-17,1.86-17Z" style="fill:#fff;stroke:#263238;stroke-linecap:round;stroke-linejoin:round"></path><polygon points="356.05 371.52 355.3 371.96 340.97 380.31 361 380.31 360.48 371.76 356.05 371.52" style="fill:#fff;stroke:#263238;stroke-linecap:round;stroke-linejoin:round"></polygon><path d="M368.78,279.08a23.92,23.92,0,0,0-3.87-.5c-1.51,0-4.7,3.86-4.7,4.37s.17,1.34,1,.84,2.85-1.85,2.85-1.85l8.41,2.52.84-3.53Z" style="fill:#fff;stroke:#263238;stroke-linecap:round;stroke-linejoin:round"></path><path d="M368.78,280.93s-5.55.34-6.72.5-1.68,1.52-.17,1.52,3.53-.17,3.53-.17a6.19,6.19,0,0,0,3.36,1.18c2.18.16,2.69.16,2.69.16" style="fill:#fff;stroke:#263238;stroke-linecap:round;stroke-linejoin:round"></path><polygon points="373.32 280.93 372.48 284.46 400.88 293.7 401.55 285.47 373.32 280.93" style="fill:#fff;stroke:#263238;stroke-linecap:round;stroke-linejoin:round"></polygon><path d="M400.1,250s-8.63,9.34-10.5,12.61,3.73,18.44,4.2,22.88,1.87,7.23-.23,9.57-.24,3.73.93,4.67,11.21,4.9,16.58,4.2,6.53-4.44,7-10.27,0-26.38-4.67-34.79S404.07,246.28,400.1,250Z" style="fill:#fff;stroke:#263238;stroke-linecap:round;stroke-linejoin:round"></path><path d="M397.07,247.21l-9.57,12.61,1.17,3.5s5.66-6,8-7.39,8.66-7,8.66-7S401.5,244.41,397.07,247.21Z" style="fill:#fff;stroke:#263238;stroke-linecap:round;stroke-linejoin:round"></path><path d="M397.54,258.65s-5.37,2.57-8.17,6.3-14,22.65-14,22.65l-24.75-4.44-.23,3.27s14.47,7.47,21.24,9.1,11.21,4,12.38,1.87,11.67-19.61,11.67-19.61l7.7-5.83" style="fill:#fff;stroke:#263238;stroke-linecap:round;stroke-linejoin:round"></path><line x1="395.67" y1="277.79" x2="404.77" y2="274.99" style="fill:none;stroke:#263238;stroke-linecap:round;stroke-linejoin:round"></line><path d="M350.61,283.16s-5.36-2.57-7.23-2.8-5.37,3.27-5.14,4.44,3.74-.94,3.74-.94.7,1.17,3.5,2.1a10,10,0,0,0,4.9.47Z" style="fill:#fff;stroke:#263238;stroke-linecap:round;stroke-linejoin:round"></path><path d="M405.54,325.77l-7.72,54.84a.92.92,0,0,1-1.13.77h0a.92.92,0,0,1-.7-1l5.43-55.53Z" style="fill:#263238;stroke:#263238;stroke-linecap:round;stroke-linejoin:round"></path><path d="M427.7,326.22l12.89,53.86a.92.92,0,0,1-.76,1.13h0a.93.93,0,0,1-1-.66l-15-52.27Z" style="fill:#263238;stroke:#263238;stroke-linecap:round;stroke-linejoin:round"></path><path d="M404.28,325.56l8.21,54.76a.92.92,0,0,1-.86,1.06h0a.92.92,0,0,1-1-.74l-10.41-53.37Z" style="fill:#263238;stroke:#263238;stroke-linecap:round;stroke-linejoin:round"></path><path d="M375.23,325.77l-7.71,54.84a.92.92,0,0,1-1.13.77h0a.92.92,0,0,1-.71-1l5.44-55.53Z" style="fill:#263238;stroke:#263238;stroke-linecap:round;stroke-linejoin:round"></path><path d="M439.91,268.88l-9.39,61.06H363.73s-1-17.6,2-23.82,39.29,7.12,40.6,6.79c1-.24-.46-31.77-2.24-44.09a6.1,6.1,0,0,1,6.05-7h23.77A6.11,6.11,0,0,1,439.91,268.88Z" style="fill:#92E3A9;stroke:#263238;stroke-linecap:round;stroke-linejoin:round"></path><path d="M365.69,306.12c2.95-6.22,39.29,7.12,40.6,6.79,1-.24-.46-31.77-2.24-44.09a5.92,5.92,0,1,1,11.64.06l-9.4,61.06H363.73S362.74,312.34,365.69,306.12Z" style="fill:#263238;stroke:#263238;stroke-linecap:round;stroke-linejoin:round"></path></g><g id="freepik--character-1--inject-88"><polygon points="144.38 254.72 138.59 258.92 133.86 254.72 141.75 247.35 144.38 254.72" style="fill:#fff;stroke:#263238;stroke-linecap:round;stroke-linejoin:round"></polygon><path d="M173.89,309.29c-6.21-1-31.52,3.35-31.52,3.35s-2.2,8.34,2.39,7.64,20.6-.54,20.6-.54-10.28,23.95-12.85,36.8c-1.39,7-5.29,10.72-6.18,13.71s1.79,1.79,4.48,3.58a21.5,21.5,0,0,0,10.44,3.28c3.29,0-5.67-6-5.67-10.75s10.87-20.64,16.21-29.56c7.75-12.94,2.69-4.64,4.45-9.37a9.64,9.64,0,0,0,1.47-2.85C179.62,318.37,180.1,310.25,173.89,309.29Z" style="fill:#fff;stroke:#263238;stroke-linecap:round;stroke-linejoin:round"></path><path d="M152.31,376.36c-.52-1.66-3.7-1.43-3.7-1.43-.86,1.14-.29,3.42-.29,3.42h-1.71s0-4.56-1.42-6,.28-1.42.28-1.42l2.17.55c2.12.73,6,2.55,6.36,3.09a7,7,0,0,0,1.59,1.65c1,.62,4.82.75,5.82.69s.94.12.69.56a3.17,3.17,0,0,1-2.69,1.12H153.9A6.45,6.45,0,0,1,152.31,376.36Z" style="fill:#263238;stroke:#263238;stroke-linecap:round;stroke-linejoin:round"></path><path d="M152.53,373.28c0-.42,3.88-4.13,3.88-4.13a3.86,3.86,0,0,1,2.56,2.07l.16,1.28-4,2.38S152.59,374.28,152.53,373.28Z" style="fill:#263238;stroke:#263238;stroke-linecap:round;stroke-linejoin:round"></path><path d="M155.16,301.52s22.69-1.74,24.79.89,12.34,62.66,12.34,62.66,5.67,9.67,6.63,10.56,2.5,1.33,1.66,1.77-5.08.51-6.07-.12-4.32-3.8-5.38-4.32-2.89,0-3.41-1.58a4.46,4.46,0,0,1,.55-2.73,8.35,8.35,0,0,0,.16-6.49c-1.56-4-4.65-14.13-7.2-17.36-3.95-5-9.21-21.15-8.68-29.3l-20.39,1.8C147.27,317.56,151.21,303.1,155.16,301.52Z" style="fill:#fff;stroke:#263238;stroke-linecap:round;stroke-linejoin:round"></path><path d="M191.44,377c-.52-1.65-3.7-1.42-3.7-1.42-.86,1.14-.29,3.42-.29,3.42h-1.71s0-4.56-1.42-6,.28-1.42.28-1.42l2.17.55c2.12.74,6,2.56,6.36,3.09a7,7,0,0,0,1.59,1.65c1,.63,4.82.75,5.82.69s.94.12.69.56a3.17,3.17,0,0,1-2.69,1.13H193A6.53,6.53,0,0,1,191.44,377Z" style="fill:#263238;stroke:#263238;stroke-linecap:round;stroke-linejoin:round"></path><path d="M192,374.57c0-.42,3.88-4.13,3.88-4.13a3.48,3.48,0,0,1,1.94,2.06l.5,1.75-4,2.38S192.09,375.57,192,374.57Z" style="fill:#263238;stroke:#263238;stroke-linecap:round;stroke-linejoin:round"></path><path d="M156.87,279.92l4.53-1.85a24.1,24.1,0,0,1,3.87-.5c1.51,0,4.7,3.86,4.7,4.37s-.16,1.34-1,.84-2.86-1.85-2.86-1.85l-8.4,2.52-28.41,9.24-.67-8.23Z" style="fill:#fff;stroke:#263238;stroke-linecap:round;stroke-linejoin:round"></path><path d="M161.4,279.92s5.55.34,6.72.51,1.69,1.51.17,1.51-3.53-.17-3.53-.17A6.14,6.14,0,0,1,161.4,283c-2.18.17-2.69.17-2.69.17" style="fill:#fff;stroke:#263238;stroke-linecap:round;stroke-linejoin:round"></path><path d="M135.17,253.93s5.53,3.15,6.84,9.2,1.58,17.36,1.05,20-6.83,6.83-6.83,6.83l-1.85,11.57S164.56,300,166.14,300s.79,8.68.53,11.57-3,9-3,9-15.67,1.67-23.21,2.07c-9,.48-12.91.68-19.75.15S109.93,317,109.4,309.94s2.63-8.94,3.42-15.78,2.11-20,2.89-29.19S123.6,252.09,135.17,253.93Z" style="fill:#fff;stroke:#263238;stroke-linecap:round;stroke-linejoin:round"></path><path d="M158.58,241a33,33,0,0,1-3.16,10c-2.37,4.2-8.94,6.83-10.52,6.83s-4.47-6.57-4.47-6.57,8.42-12.1,12.89-13.41S158.58,241,158.58,241Z" style="fill:#fff;stroke:#263238;stroke-linecap:round;stroke-linejoin:round"></path><path d="M150.42,245.78s-.26-1.84,5.79-1.84,10.78-5.79,11.31-12.1S161.21,225,156.74,225s-10.26-3.68-16.83-1.31-6.58,9.73-6.84,14.46-.53,6-10.78,9.73S106,258.14,104.14,267.6s8.42,16.57,16.31,12.62,7.89-22.08,13.67-24.19S147.53,253.67,150.42,245.78Z" style="fill:#263238;stroke:#263238;stroke-linecap:round;stroke-linejoin:round"></path><path d="M133.6,271.55s13.41,28.66,15.25,28.66S171.72,286,171.72,286a5.1,5.1,0,0,0,2.9,0,17.4,17.4,0,0,0,3.15-3.16s4.21,3.16,3.68,1a6.27,6.27,0,0,0-5.52-4.2c-2.37,0-5.78,5.52-5.78,5.52l-18.41,6.57s-4.73-20.51-7.1-25.5-4.73-8.15-6-7.37" style="fill:#fff;stroke:#263238;stroke-linecap:round;stroke-linejoin:round"></path><path d="M175.93,279.7c-2.37,0-5.78,5.52-5.78,5.52l-18.41,6.57s-.6-2.59-1.48-6.16l-7.46,4.72c2.8,5.4,5.32,9.86,6,9.86,1.84,0,22.87-14.2,22.87-14.2a5.1,5.1,0,0,0,2.9,0,17.4,17.4,0,0,0,3.15-3.16s4.21,3.16,3.68,1A6.27,6.27,0,0,0,175.93,279.7Z" style="fill:#fff;stroke:#263238;stroke-linecap:round;stroke-linejoin:round"></path><path d="M116.91,325.77l7.71,54.84a.92.92,0,0,0,1.13.77h0a.92.92,0,0,0,.71-1L121,324.87Z" style="fill:#263238;stroke:#263238;stroke-linecap:round;stroke-linejoin:round"></path><path d="M94.75,326.22l-12.9,53.86a.92.92,0,0,0,.77,1.13h0a.93.93,0,0,0,1-.66l15-52.27Z" style="fill:#263238;stroke:#263238;stroke-linecap:round;stroke-linejoin:round"></path><path d="M118.16,325.56,110,380.32a.93.93,0,0,0,.87,1.06h0a.92.92,0,0,0,1-.74l10.41-53.37Z" style="fill:#263238;stroke:#263238;stroke-linecap:round;stroke-linejoin:round"></path><path d="M147.21,325.77l7.72,54.84a.92.92,0,0,0,1.13.77h0a.91.91,0,0,0,.7-1l-5.43-55.53Z" style="fill:#263238;stroke:#263238;stroke-linecap:round;stroke-linejoin:round"></path><path d="M82.53,268.88l9.4,61.06h66.78s1-17.6-2-23.82-39.3,7.12-40.61,6.79c-1-.24.46-31.77,2.25-44.09a6.11,6.11,0,0,0-6.05-7H88.57A6.11,6.11,0,0,0,82.53,268.88Z" style="fill:#92E3A9;stroke:#263238;stroke-linecap:round;stroke-linejoin:round"></path><path d="M156.76,306.12c-2.95-6.22-39.3,7.12-40.61,6.79-1-.24.46-31.77,2.25-44.09a5.92,5.92,0,1,0-11.64.06l9.39,61.06h42.56S159.7,312.34,156.76,306.12Z" style="fill:#263238;stroke:#263238;stroke-linecap:round;stroke-linejoin:round"></path></g></svg>